<svg width="25" height="25" viewBox="0 0 25 25" fill="none" xmlns="http://www.w3.org/2000/svg">
<path fill-rule="evenodd" clip-rule="evenodd" d="M12.5 2.75C7.11522 2.75 2.75 7.11522 2.75 12.5C2.75 17.8848 7.11522 22.25 12.5 22.25C17.8848 22.25 22.25 17.8848 22.25 12.5C22.25 7.11522 17.8848 2.75 12.5 2.75ZM16.7803 13.0303C16.921 12.8897 17 12.6989 17 12.5C17 12.3011 16.921 12.1103 16.7803 11.9697L13.7803 8.96967C13.4874 8.67678 13.0126 8.67678 12.7197 8.96967C12.4268 9.26256 12.4268 9.73744 12.7197 10.0303L14.4393 11.75L8.75 11.75C8.33579 11.75 8 12.0858 8 12.5C8 12.9142 8.33579 13.25 8.75 13.25L14.4393 13.25L12.7197 14.9697C12.4268 15.2626 12.4268 15.7374 12.7197 16.0303C13.0126 16.3232 13.4874 16.3232 13.7803 16.0303L16.7803 13.0303Z" fill="#FAFAFA"/>
</svg>
