<svg version="1.1" id="Layer_1" xmlns="http://www.w3.org/2000/svg" xmlns:xlink="http://www.w3.org/1999/xlink" x="0px" y="0px"
         width="228.804px" height="149.456px" viewBox="0 0 228.804 149.456" enable-background="new 0 0 228.804 149.456"
         xml:space="preserve">
    <rect x="11.301" y="28.509" fill="#DEDDDD" width="204.833" height="92.493"/>
    <rect x="11.347" y="27.554" fill="#EAEAEA" width="98.965" height="90.499"/>
    <rect x="11.833" y="1.367" fill="#383838" width="204.301" height="22.935"/>
    <rect x="11.833" y="126.414" fill="#383838" width="204.301" height="22.934"/>
    <rect x="0.661" y="8.247" fill="#4A494A" width="228.241" height="20.037"/>
    <rect x="0.661" y="120.462" fill="#4A494A" width="228.241" height="20.037"/>
    <rect x="15.92" y="41.233" fill="#4A494A" width="9.915" height="17.846"/>
    <rect x="58.41" y="41.233" fill="#4A494A" width="9.915" height="17.846"/>
    <rect x="105.15" y="41.233" fill="#4A494A" width="9.914" height="17.846"/>
    <rect x="156.138" y="41.233" fill="#4A494A" width="9.914" height="17.846"/>
    <rect x="201.461" y="41.233" fill="#4A494A" width="9.914" height="17.846"/>
    <rect x="15.92" y="87.973" fill="#4A494A" width="9.915" height="17.846"/>
    <rect x="58.41" y="87.973" fill="#4A494A" width="9.915" height="17.846"/>
    <rect x="105.15" y="87.973" fill="#4A494A" width="9.914" height="17.846"/>
    <rect x="156.138" y="87.973" fill="#4A494A" width="9.914" height="17.846"/>
    <rect x="201.461" y="87.973" fill="#4A494A" width="9.914" height="17.846"/>
    <rect x="19.697" y="23.647" fill="#4A494A" width="2.833" height="21.6"/>
    <rect x="61.951" y="23.765" fill="#4A494A" width="2.833" height="21.599"/>
    <rect x="108.809" y="21.759" fill="#4A494A" width="2.833" height="21.599"/>
    <rect x="159.562" y="24.591" fill="#4A494A" width="2.832" height="21.599"/>
    <rect x="205.238" y="22.231" fill="#4A494A" width="2.833" height="21.599"/>
    <rect x="19.697" y="102.963" fill="#4A494A" width="2.833" height="21.599"/>
    <rect x="61.951" y="103.08" fill="#4A494A" width="2.833" height="21.6"/>
    <rect x="108.809" y="101.074" fill="#4A494A" width="2.833" height="21.6"/>
    <rect x="159.562" y="103.906" fill="#4A494A" width="2.832" height="21.6"/>
    <rect x="205.238" y="101.546" fill="#4A494A" width="2.833" height="21.6"/>
    </svg>